# xmcd CD database file
#
# Track frame offsets:
#	150
#	18178
#	30651
#	52400
#	70385
#	92535
#	101170
#	124266
#	146427
#	159440
#
# Disc length: 2446 seconds
#
# Revision: 0
# Processed by: cddbd v1.4PL0 Copyright (c) Steve Scherf et al.
# Submitted via: CdAid 2001.05.15.01
#
DISCID=87098c0a
DTITLE=Sari Baker - Mad Woman Blues
DYEAR=1900
DGENRE=
TTITLE0=Haunting Me
TTITLE1=Crossroads
TTITLE2=I Didn't See
TTITLE3=Don't Bother
TTITLE4=Lost In The Woods
TTITLE5=Clover
TTITLE6=The Postcard
TTITLE7=Tired
TTITLE8=The Highlands
TTITLE9=Waiting
EXTD=
EXTT0=
EXTT1=
EXTT2=
EXTT3=
EXTT4=
EXTT5=
EXTT6=
EXTT7=
EXTT8=
EXTT9=
PLAYORDER=
